{
    "asset" : {
        "generator" : "Khronos glTF Blender I/O v1.6.16",
        "version" : "2.0"
    },
    "scene" : 0,
    "scenes" : [
        {
            "name" : "Scene",
            "nodes" : [
                0
            ]
        }
    ],
    "nodes" : [
        {
            "mesh" : 0,
            "name" : "EdificioCU.001",
            "scale" : [
                110.34908294677734,
                5.667724132537842,
                111.26453399658203
            ],
            "translation" : [
                1.3004274368286133,
                27.496591567993164,
                138.7603302001953
            ]
        }
    ],
    "materials" : [
        {
            "doubleSided" : true,
            "name" : "Material.EdificioCU.001",
            "pbrMetallicRoughness" : {
                "baseColorFactor" : [
                    0.800000011920929,
                    0.800000011920929,
                    0.800000011920929,
                    1
                ],
                "metallicFactor" : 0,
                "roughnessFactor" : 0.5
            }
        }
    ],
    "meshes" : [
        {
            "name" : "Edificio.Mesh.001",
            "primitives" : [
                {
                    "attributes" : {
                        "POSITION" : 0,
                        "NORMAL" : 1,
                        "TEXCOORD_0" : 2
                    },
                    "indices" : 3,
                    "material" : 0
                }
            ]
        }
    ],
    "accessors" : [
        {
            "bufferView" : 0,
            "componentType" : 5126,
            "count" : 12331,
            "max" : [
                1.068404197692871,
                4.844505310058594,
                1.0645395517349243
            ],
            "min" : [
                -1.0721253156661987,
                -4.908564567565918,
                -1.0622438192367554
            ],
            "type" : "VEC3"
        },
        {
            "bufferView" : 1,
            "componentType" : 5126,
            "count" : 12331,
            "type" : "VEC3"
        },
        {
            "bufferView" : 2,
            "componentType" : 5126,
            "count" : 12331,
            "type" : "VEC2"
        },
        {
            "bufferView" : 3,
            "componentType" : 5123,
            "count" : 16257,
            "type" : "SCALAR"
        }
    ],
    "bufferViews" : [
        {
            "buffer" : 0,
            "byteLength" : 147972,
            "byteOffset" : 0
        },
        {
            "buffer" : 0,
            "byteLength" : 147972,
            "byteOffset" : 147972
        },
        {
            "buffer" : 0,
            "byteLength" : 98648,
            "byteOffset" : 295944
        },
        {
            "buffer" : 0,
            "byteLength" : 32514,
            "byteOffset" : 394592
        }
    ],
    "buffers" : [
        {
            "byteLength" : 427108,
            "uri" : "data:application/octet-stream;base64,"
        }
    ]
}
