{
    "asset" : {
        "generator" : "Khronos glTF Blender I/O v1.6.16",
        "version" : "2.0"
    },
    "scene" : 0,
    "scenes" : [
        {
            "name" : "Scene",
            "nodes" : [
                0
            ]
        }
    ],
    "nodes" : [
        {
            "mesh" : 0,
            "name" : "volumen",
            "scale" : [
                0.592162549495697,
                0.592162549495697,
                0.592162549495697
            ],
            "translation" : [
                0,
                69.55206298828125,
                0
            ]
        }
    ],
    "materials" : [
        {
            "doubleSided" : true,
            "name" : "Material.001",
            "pbrMetallicRoughness" : {
                "baseColorFactor" : [
                    0.9578225612640381,
                    0.9390890598297119,
                    1,
                    1
                ],
                "metallicFactor" : 0,
                "roughnessFactor" : 0.5290908813476562
            }
        }
    ],
    "meshes" : [
        {
            "name" : "Cubo.017",
            "primitives" : [
                {
                    "attributes" : {
                        "POSITION" : 0,
                        "NORMAL" : 1,
                        "TEXCOORD_0" : 2
                    },
                    "indices" : 3,
                    "material" : 0
                }
            ]
        }
    ],
    "accessors" : [
        {
            "bufferView" : 0,
            "componentType" : 5126,
            "count" : 15240,
            "max" : [
                129.62413024902344,
                5.944098472595215,
                8.496549606323242
            ],
            "min" : [
                -263.7916259765625,
                -117.6689682006836,
                -401.9519958496094
            ],
            "type" : "VEC3"
        },
        {
            "bufferView" : 1,
            "componentType" : 5126,
            "count" : 15240,
            "type" : "VEC3"
        },
        {
            "bufferView" : 2,
            "componentType" : 5126,
            "count" : 15240,
            "type" : "VEC2"
        },
        {
            "bufferView" : 3,
            "componentType" : 5123,
            "count" : 21948,
            "type" : "SCALAR"
        }
    ],
    "bufferViews" : [
        {
            "buffer" : 0,
            "byteLength" : 182880,
            "byteOffset" : 0
        },
        {
            "buffer" : 0,
            "byteLength" : 182880,
            "byteOffset" : 182880
        },
        {
            "buffer" : 0,
            "byteLength" : 121920,
            "byteOffset" : 365760
        },
        {
            "buffer" : 0,
            "byteLength" : 43896,
            "byteOffset" : 487680
        }
    ],
    "buffers" : [
        {
            "byteLength" : 531576,
            "uri" : "data:application/octet-stream;base64,"
        }
    ]
}
